{
  "accessors": [
    {
      "bufferView": 2,
      "componentType": 5126,
      "count": 1328,
      "max": [
        40.873634338378906,
        40.745277404785156,
        117.13482666015625
      ],
      "min": [
        -41.33832550048828,
        -41.08163070678711,
        -0.35558319091796875
      ],
      "type": "VEC3"
    },
    {
      "bufferView": 2,
      "byteOffset": 15936,
      "componentType": 5126,
      "count": 1328,
      "max": [
        1.0,
        0.9999984502792358,
        1.0
      ],
      "min": [
        -1.0,
        -1.0,
        -1.0
      ],
      "type": "VEC3"
    },
    {
      "bufferView": 3,
      "componentType": 5126,
      "count": 1328,
      "max": [
        1.0,
        0.999961793422699,
        1.0,
        1.0
      ],
      "min": [
        -1.0,
        -0.9999540448188782,
        -1.0,
        -1.0
      ],
      "type": "VEC4"
    },
    {
      "bufferView": 1,
      "componentType": 5126,
      "count": 1328,
      "max": [
        0.9994951486587524,
        0.998729944229126
      ],
      "min": [
        0.0011623711325228214,
        0.0011927848681807518
      ],
      "type": "VEC2"
    },
    {
      "bufferView": 1,
      "byteOffset": 10624,
      "componentType": 5126,
      "count": 1328,
      "max": [
        0.9994951486587524,
        0.998729944229126
      ],
      "min": [
        0.0011623711325228214,
        0.0011927848681807518
      ],
      "type": "VEC2"
    },
    {
      "bufferView": 1,
      "byteOffset": 21248,
      "componentType": 5126,
      "count": 1328,
      "max": [
        0.9994951486587524,
        0.998729944229126
      ],
      "min": [
        0.0011623711325228214,
        0.0011927848681807518
      ],
      "type": "VEC2"
    },
    {
      "bufferView": 1,
      "byteOffset": 31872,
      "componentType": 5126,
      "count": 1328,
      "max": [
        0.9994951486587524,
        0.998729944229126
      ],
      "min": [
        0.0011623711325228214,
        0.0011927848681807518
      ],
      "type": "VEC2"
    },
    {
      "bufferView": 1,
      "byteOffset": 42496,
      "componentType": 5126,
      "count": 1328,
      "max": [
        0.9994951486587524,
        0.998729944229126
      ],
      "min": [
        0.0011623711325228214,
        0.0011927848681807518
      ],
      "type": "VEC2"
    },
    {
      "bufferView": 1,
      "byteOffset": 53120,
      "componentType": 5126,
      "count": 1328,
      "max": [
        0.9994951486587524,
        0.998729944229126
      ],
      "min": [
        0.0011623711325228214,
        0.0011927848681807518
      ],
      "type": "VEC2"
    },
    {
      "bufferView": 1,
      "byteOffset": 63744,
      "componentType": 5126,
      "count": 1328,
      "max": [
        0.9994951486587524,
        0.998729944229126
      ],
      "min": [
        0.0011623711325228214,
        0.0011927848681807518
      ],
      "type": "VEC2"
    },
    {
      "bufferView": 1,
      "byteOffset": 74368,
      "componentType": 5126,
      "count": 1328,
      "max": [
        0.9994951486587524,
        0.998729944229126
      ],
      "min": [
        0.0011623711325228214,
        0.0011927848681807518
      ],
      "type": "VEC2"
    },
    {
      "bufferView": 1,
      "byteOffset": 84992,
      "componentType": 5126,
      "count": 1328,
      "max": [
        0.9994951486587524,
        0.998729944229126
      ],
      "min": [
        0.0011623711325228214,
        0.0011927848681807518
      ],
      "type": "VEC2"
    },
    {
      "bufferView": 1,
      "byteOffset": 95616,
      "componentType": 5126,
      "count": 1328,
      "max": [
        0.9994951486587524,
        0.998729944229126
      ],
      "min": [
        0.0011623711325228214,
        0.0011927848681807518
      ],
      "type": "VEC2"
    },
    {
      "bufferView": 0,
      "componentType": 5125,
      "count": 2838,
      "type": "SCALAR"
    }
  ],
  "asset": {
    "extras": {
      "author": "Thunder (https://sketchfab.com/thunderpwn)",
      "license": "CC-BY-SA-4.0 (http://creativecommons.org/licenses/by-sa/4.0/)",
      "source": "https://sketchfab.com/3d-models/office-chair-138dbd4475d947978dcb538c91bfa95c",
      "title": "Office Chair"
    },
    "generator": "Sketchfab-12.66.0",
    "version": "2.0"
  },
  "bufferViews": [
    {
      "buffer": 0,
      "byteLength": 11352,
      "name": "floatBufferViews",
      "target": 34963
    },
    {
      "buffer": 0,
      "byteLength": 106240,
      "byteOffset": 11352,
      "byteStride": 8,
      "name": "floatBufferViews",
      "target": 34962
    },
    {
      "buffer": 0,
      "byteLength": 31872,
      "byteOffset": 117592,
      "byteStride": 12,
      "name": "floatBufferViews",
      "target": 34962
    },
    {
      "buffer": 0,
      "byteLength": 21248,
      "byteOffset": 149464,
      "byteStride": 16,
      "name": "floatBufferViews",
      "target": 34962
    }
  ],
  "buffers": [
    {
      "byteLength": 170712,
      "uri": "scene.bin"
    }
  ],
  "images": [
    {
      "uri": "textures/DefaultMaterial_baseColor.png"
    },
    {
      "uri": "textures/DefaultMaterial_metallicRoughness.png"
    },
    {
      "uri": "textures/DefaultMaterial_normal.png"
    }
  ],
  "materials": [
    {
      "doubleSided": true,
      "name": "DefaultMaterial",
      "normalTexture": {
        "index": 2
      },
      "pbrMetallicRoughness": {
        "baseColorTexture": {
          "index": 0
        },
        "metallicRoughnessTexture": {
          "index": 1
        }
      }
    }
  ],
  "meshes": [
    {
      "name": "Cylinder_DefaultMaterial_0",
      "primitives": [
        {
          "attributes": {
            "NORMAL": 1,
            "POSITION": 0,
            "TANGENT": 2,
            "TEXCOORD_0": 3,
            "TEXCOORD_1": 4,
            "TEXCOORD_2": 5,
            "TEXCOORD_3": 6,
            "TEXCOORD_4": 7,
            "TEXCOORD_5": 8,
            "TEXCOORD_6": 9,
            "TEXCOORD_7": 10,
            "TEXCOORD_8": 11,
            "TEXCOORD_9": 12
          },
          "indices": 13,
          "material": 0,
          "mode": 4
        }
      ]
    }
  ],
  "nodes": [
    {
      "children": [
        1
      ],
      "matrix": [
        1.0,
        0.0,
        0.0,
        0.0,
        0.0,
        2.220446049250313e-16,
        -1.0,
        0.0,
        0.0,
        1.0,
        2.220446049250313e-16,
        0.0,
        0.0,
        0.0,
        0.0,
        1.0
      ],
      "name": "Sketchfab_model"
    },
    {
      "children": [
        2
      ],
      "matrix": [
        1.0,
        0.0,
        0.0,
        0.0,
        0.0,
        0.0,
        1.0,
        0.0,
        0.0,
        -1.0,
        0.0,
        0.0,
        0.0,
        0.0,
        0.0,
        1.0
      ],
      "name": "office_chair.fbx"
    },
    {
      "children": [
        3
      ],
      "name": "RootNode"
    },
    {
      "children": [
        4
      ],
      "matrix": [
        1.0,
        0.0,
        0.0,
        0.0,
        0.0,
        -1.331580541386046e-07,
        -0.9999999999999911,
        0.0,
        0.0,
        0.9999999999999911,
        -1.331580541386046e-07,
        0.0,
        0.0,
        0.0,
        0.0,
        1.0
      ],
      "name": "Cylinder"
    },
    {
      "mesh": 0,
      "name": "Cylinder_DefaultMaterial_0"
    }
  ],
  "samplers": [
    {
      "magFilter": 9729,
      "minFilter": 9987,
      "wrapS": 10497,
      "wrapT": 10497
    }
  ],
  "scene": 0,
  "scenes": [
    {
      "name": "Sketchfab_Scene",
      "nodes": [
        0
      ]
    }
  ],
  "textures": [
    {
      "sampler": 0,
      "source": 0
    },
    {
      "sampler": 0,
      "source": 1
    },
    {
      "sampler": 0,
      "source": 2
    }
  ]
}
